<svg xmlns="http://www.w3.org/2000/svg" xml:space="preserve" width="414.11829" height="413.09436" viewBox="0 0 414.11828 413.09436"><path d="M804.157 199.92c-53.923.532-83.941 24.88-95.979 62.923l-68.594 256.194c-3.779 14.268-8.528 28.31-5.646 43.584 5.001 26.512 29.916 50.449 60.346 50.322l82.648-.346 43.701-35.887-114.306.055c-18.354-.735-32.6-16.677-30.793-35.58l75.2-279.05c12.736-50.959 53.423-62.216 53.423-62.216zm39.246.036c-14.392.077-28.35 3.735-41.155 10.749-22.324 12.228-34.867 31.789-41.316 55.77L687.606 541.15c.23 18.03 11.398 23.715 25.607 23.28l119.475.107 27.248-20.768-19.02 68.955 42.389.045 53.42-202.105-102.154-.05-30.127 29.932 83.267-.132-23.69 87.119-131.694.836 69.63-258.348c5.642-17.546 17.864-33.013 36.057-33.541l172.574-.012 36.582-36.21s-138.448-.648-203.767-.301zm155.283 48.395-149.729.01c-30.61.105-36.334 36.2-36.334 36.2l149.428.027zm2.871 120.586-124.772.006-30.134 29.861 105.808-.015-57.86 214.16 40.831-.1z" style="fill:#d00e31;fill-opacity:1" transform="translate(-633.052 -199.854)"/></svg>