<svg xmlns="http://www.w3.org/2000/svg" xml:space="preserve" x="0px" y="0px" style="enable-background:new 0 0 391.3 356.1" viewBox="0 0 391.3 356.1"><path d="M391.3 0 376 9.6c-33.6 21-63 27-88.7 27.4-51.4-.4-102.5-.2-153.7 0-12.6.1-25.9.5-39.4 2.3C70.6 42.4 47 50.2 27.1 66.5 8.3 81.9-3.7 105.2 1 131.8v.2c10.1 47.5 78.8 57.6 107.7 29.5 0 0-34.3-16.6-23.9-30.6 5.7-7.2 14.6-9.2 24.3-10.3 10.4-.5 27-.7 40.9-.8h5.2l-33.7 236.3h98l33.1-236.5h3.6c12.1-.1 24.1-.9 34.9-2.5h.2c18.1-3.1 39-10.3 57.3-23.1C367 81.1 383 61.7 387.7 35.7 389.8 23 391.3 13 391.3 0z" style="fill:#1d1d1b"/><path d="M25.1 154.1c9.1 8.5 22.3 11.7 32.2 12.6 3.9.5 7.4.5 9.8.3 9.1-.3 15.2-1.8 19.2-2.9 3.6-1.2 5.4-2.1 5.9-2.4.1 0 .2-.2.2-.2s-7.5-4.2-11.5-7.9c-3.5-3.2-8.6-7.6-8.6-15.5 0-3 1.3-28.5 48.5-28.5h45.7l-.3 2.1L132.9 346h78.4l33.1-236.5h21c23.9 0 47.8-6.7 67.2-17.5 19.3-10.9 34.4-26.1 41-42.8 1.2-3 2.5-8.8 3.7-14.4 1.7-8.2 3.1-16.7 3.1-16.7s-.4.3-.9.6c-3.7 2.9-19.3 13.8-41.5 20.8-11.4 3.8-24.5 6.5-38.5 6.5H121.3c-22 0-52.4 5-74.5 17.9-4.2 2.6-8.2 5.3-11.7 8.5-9.9 8.8-16.8 17.9-21 27.6-2.8 6.5-4.3 13.2-4.3 19.6 0 11.7 3.8 22 11.4 30.5 1.2 1.3 2.5 2.8 3.9 4" style="fill:#fff"/><path d="M238.3 102.5h27.1c23.6 0 48.5-7.3 68.1-19.4 15.7-9.6 28-22.3 33.6-36.6 2.5-6.4 3.5-9.7 4.4-14.4-5 3-17.9 9.7-34.3 14.6-11.3 3.5-24.4 5.9-37.7 5.9l-108.2.4h-70c-25.2 0-54.4 6.1-73.7 18.4-2.9 2.1-5.5 3.8-7.9 6.1-16.8 15-22.7 29.3-22.9 41.3-.1.3-.1.3-.1.9 0 4.4.8 8.5 1.9 12 .4 1.5 1 3 1.6 4.1 2.7 5.9 6.4 10.2 9.6 13.2 6.5 5.9 16.6 9.1 26.8 10.3 7.8.9 15.7.9 22.3 0-6.2-4.4-13.5-10-13.5-21.4 0-7.6 4.8-35.5 55.5-35.5h53.7l-33.7 236.4h64.3l33.1-236.3" style="fill:#c20b40"/></svg>